<?xml version="1.0" encoding="utf-8"?>
<!-- Generator: Adobe Illustrator 28.0.0, SVG Export Plug-In . SVG Version: 6.00 Build 0)  -->
<svg version="1.1" id="图层_1" xmlns="http://www.w3.org/2000/svg" xmlns:xlink="http://www.w3.org/1999/xlink" x="0px" y="0px"
	 viewBox="0 0 988 988" style="enable-background:new 0 0 988 988;" xml:space="preserve">
<style type="text/css">
	.st0{fill:none;stroke:#808080;stroke-width:2;}
	.st1{fill:#FFFFFF;}
	.st2{fill:#377EB8;}
</style>
<g>
	<path vector-effect="non-scaling-stroke" class="st0" d="M422.1,228.9c21.8-2.3,43.8-3.3,65.3-1.4c29.8,2.7,58,9.2,84.7,19.4
		c28.9,11.1,55.9,27.2,80.7,46.8c7,5.6,13.4,11.2,19.2,16.9c8.3,8.2,16.8,16.5,24,25.6c8.5,10.8,16.4,21.9,23.8,33.4
		c4.9,7.7,9.3,15.9,13.4,24.1l0,0c0.1,0.1,0.3,0.2,0.5,0.1c11.4-5.8,22.7-11.5,33.8-17.1c2.3-1.2,4.8-2.3,7.6-3.5
		c1.6-0.7,2-1.8,1.3-3.4c-2.4-4.9-5.1-9.9-8.1-15c-8.7-14.6-17-27-24.9-37.4c-14.7-19.3-31.5-37.8-49.4-53.2
		c-44.4-38.1-96.9-65.3-153.6-77.9c-36.3-8.1-72.8-10.5-109.4-7.3c-9.6,0.8-19.1,2.1-28.5,3.9c-0.9,0.2-1.8-0.3-2.2-1.2
		c-4.3-10.5-8.8-21.5-13.5-33.2c-0.6-1.6-1.4-3.2-2.2-4.7c-0.1-0.1-0.1-0.1-0.2-0.2c-0.3-0.2-0.8-0.2-1.1,0.1
		c-16.8,18.2-33.3,35.9-49.5,53.1c-4.2,4.4-8.5,8.9-12.8,13.3c-5.8,5.9-11.3,12.1-16.9,18c-8.6,9.1-16.8,17.8-24.6,26.3
		c-2,2.1-4.1,3.6-5.6,6.2c-0.1,0.3,0,0.5,0.3,0.5c2.3,0.2,4.4,0.4,6.3,0.4c20.4,0.2,41.3,0.6,62.5,1.3c30.3,0.9,60.7,1.9,91.3,2.8
		c0.1,0,0.1,0,0.1,0c0.3-0.1,0.5-0.3,0.5-0.6c0-0.6-0.2-1.1-0.4-1.7c-3.4-8.2-7.2-16.2-10.2-24.4c-1-2.8-2.1-5.3-3.4-7.7
		C420.1,229.8,420.5,229.1,422.1,228.9"/>
	<path vector-effect="non-scaling-stroke" class="st0" d="M258.6,702.2c-0.3,0.2-0.7,0.1-0.9-0.4c-7.5-11.2-15.4-22.5-22.2-34.1
		c-15-25.8-25.9-53.1-32.7-81.9c-1.1-4.4-2-8.8-2.7-13.3c-1-6-2.2-11.6-2.9-17.7c-1.9-15.8-2.7-29.7-2.5-41.7
		c0.5-24.9,3.4-49.9,9.8-73.7c8.5-31.5,21.5-61,39-88.4c0.7-1,0.4-2.4-0.6-3c-8.6-5.5-18.3-11.8-28.9-18.9c-3-2-6.1-3.9-9.2-5.7
		c-1-0.5-2.2-0.2-2.8,0.7c-4.4,7.1-8.1,13.4-11.2,19c-21.2,38.4-35.6,80.6-41.7,124c-6.3,45.1-3.8,90.3,7.5,135.5
		c7.5,30.3,19.2,58.7,34.3,86c10.2,18.6,22.3,36.1,36,52.3c1.5,1.7,0.4,3-0.7,4.5c-7.5,9.7-15.1,19.7-22.8,30
		c-0.2,0.1-0.2,0.3-0.3,0.5c-0.2,0.9,0.3,1.8,1.2,2.1c3.3,0.9,7,1.3,10.4,2.1c44.3,10.4,87.4,20.6,129.5,30.5
		c4.7,1.1,9.3,2.8,14.1,3.3c0.6,0,0.8-0.2,0.6-0.8c-0.4-1.2-0.9-2.3-1.4-3.2c-9.1-16.3-17.6-31.9-25.5-46.9
		c-14-26.5-28.8-52.6-42.1-77.4c-2.1-3.9-4.2-8.1-6.3-12.4c-0.1-0.2-0.2-0.4-0.4-0.5c-0.6-0.5-1.5-0.3-2,0.3
		c-6,8.2-12.6,17-19.8,26.6C260.6,700.7,259.7,701.5,258.6,702.2"/>
	<path vector-effect="non-scaling-stroke" class="st0" d="M748.6,605.7c0.3,1.1,0.2,2.2-0.7,3.5c-2.9,6.4-6,12.8-9.2,19.2
		c-22.8,45.3-54.7,82.4-95.5,111.2c-37.6,26.5-79.5,43.8-125.7,51.9c-22,3.8-44.1,3.9-66.3,3.8c-0.6,0-1.2,0.5-1.2,1.2l-2.1,46
		c0,1.2,0.5,1.8,1.7,1.8c29.8,1,58.8-0.8,88.5-6.6c6.6-1.3,13.2-2.8,19.7-4.6c25.3-7,49.4-16.4,72.2-28.1
		c31.6-16.2,60-36.8,85.2-61.6c31.2-30.8,55.9-66.2,74.3-106.2c3.6-7.8,6.6-15.7,9.2-23.7c0.3-0.8,1.1-1.3,1.9-1.2l40.8,5.7
		c0.1,0,0.2,0,0.3,0c0.3-0.1,0.5-0.4,0.4-0.7l-46-153.5c0-0.1,0-0.1-0.1-0.2c-0.1-0.2-0.4-0.2-0.6,0c-0.9,1-1.7,2.1-2.4,3.2
		c-9,15.3-18.2,30.4-27.6,45.3c-3.8,6-7.3,11.6-10.5,17c-14.2,23.5-28.5,46.8-43,69.8c-0.1,0.2-0.2,0.3-0.2,0.5
		c-0.1,0.7,0.3,1.3,1,1.4c8.6,1.3,17.1,2.5,25.7,3.6c2.6,0.3,5.7,0.5,9.1,0.5C748,604.9,748.5,605.2,748.6,605.7"/>
</g>
<path class="st1" d="M988,0v988H0L0,0L988,0z M487.4,227.5c29.8,2.7,58,9.2,84.7,19.4c28.9,11.1,55.9,27.2,80.7,46.8
	c7,5.6,13.4,11.2,19.2,16.9c8.3,8.2,16.8,16.5,24,25.6c8.5,10.8,16.4,21.9,23.8,33.4c4.9,7.7,9.3,15.9,13.4,24.1l0,0
	c0.1,0.1,0.3,0.2,0.5,0.1c11.4-5.8,22.7-11.5,33.8-17.1c2.3-1.2,4.8-2.3,7.6-3.5c1.6-0.7,2-1.8,1.3-3.4c-2.4-4.9-5.1-9.9-8.1-15
	c-8.7-14.6-17-27-24.9-37.4c-14.7-19.3-31.5-37.8-49.4-53.2c-44.4-38.1-96.9-65.3-153.6-77.9c-36.3-8.1-72.8-10.5-109.4-7.3
	c-9.6,0.8-19.1,2.1-28.5,3.9c-0.9,0.2-1.8-0.3-2.2-1.2c-4.3-10.5-8.8-21.5-13.5-33.2c-0.6-1.6-1.4-3.2-2.2-4.7
	c-0.1-0.1-0.1-0.1-0.2-0.2c-0.3-0.2-0.8-0.2-1.1,0.1c-16.8,18.2-33.3,35.9-49.5,53.1c-4.2,4.4-8.5,8.9-12.8,13.3
	c-5.8,5.9-11.3,12.1-16.9,18c-8.6,9.1-16.8,17.8-24.6,26.3c-2,2.1-4.1,3.6-5.6,6.2c-0.1,0.3,0,0.5,0.3,0.5c2.3,0.2,4.4,0.4,6.3,0.4
	c20.4,0.2,41.3,0.6,62.5,1.3c30.3,0.9,60.7,1.9,91.3,2.8c0.1,0,0.1,0,0.1,0c0.3-0.1,0.5-0.3,0.5-0.6c0-0.6-0.2-1.1-0.4-1.7
	c-3.4-8.2-7.2-16.2-10.2-24.4c-1-2.8-2.1-5.3-3.4-7.7c-0.8-1.4-0.4-2.1,1.2-2.3C443.9,226.6,465.9,225.6,487.4,227.5z M257.7,701.8
	c-7.5-11.2-15.4-22.5-22.2-34.1c-15-25.8-25.9-53.1-32.7-81.9c-1.1-4.4-2-8.8-2.7-13.3c-1-6-2.2-11.6-2.9-17.7
	c-1.9-15.8-2.7-29.7-2.5-41.7c0.5-24.9,3.4-49.9,9.8-73.7c8.5-31.5,21.5-61,39-88.4c0.7-1,0.4-2.4-0.6-3
	c-8.6-5.5-18.3-11.8-28.9-18.9c-3-2-6.1-3.9-9.2-5.7c-1-0.5-2.2-0.2-2.8,0.7c-4.4,7.1-8.1,13.4-11.2,19
	c-21.2,38.4-35.6,80.6-41.7,124c-6.3,45.1-3.8,90.3,7.5,135.5c7.5,30.3,19.2,58.7,34.3,86c10.2,18.6,22.3,36.1,36,52.3
	c1.5,1.7,0.4,3-0.7,4.5c-7.5,9.7-15.1,19.7-22.8,30c-0.2,0.1-0.2,0.3-0.3,0.5c-0.2,0.9,0.3,1.8,1.2,2.1c3.3,0.9,7,1.3,10.4,2.1
	c44.3,10.4,87.4,20.6,129.5,30.5c4.7,1.1,9.3,2.8,14.1,3.3c0.6,0,0.8-0.2,0.6-0.8c-0.4-1.2-0.9-2.3-1.4-3.2
	c-9.1-16.3-17.6-31.9-25.5-46.9c-14-26.5-28.8-52.6-42.1-77.4c-2.1-3.9-4.2-8.1-6.3-12.4c-0.1-0.2-0.2-0.4-0.4-0.5
	c-0.6-0.5-1.5-0.3-2,0.3c-6,8.2-12.6,17-19.8,26.6c-0.8,1.1-1.7,1.9-2.8,2.6C258.3,702.4,257.9,702.3,257.7,701.8z M747.9,609.2
	c-2.9,6.4-6,12.8-9.2,19.2c-22.8,45.3-54.7,82.4-95.5,111.2c-37.6,26.5-79.5,43.8-125.7,51.9c-22,3.8-44.1,3.9-66.3,3.8
	c-0.6,0-1.2,0.5-1.2,1.2l-2.1,46c0,1.2,0.5,1.8,1.7,1.8c29.8,1,58.8-0.8,88.5-6.6c6.6-1.3,13.2-2.8,19.7-4.6
	c25.3-7,49.4-16.4,72.2-28.1c31.6-16.2,60-36.8,85.2-61.6c31.2-30.8,55.9-66.2,74.3-106.2c3.6-7.8,6.6-15.7,9.2-23.7
	c0.3-0.8,1.1-1.3,1.9-1.2l40.8,5.7c0.1,0,0.2,0,0.3,0c0.3-0.1,0.5-0.4,0.4-0.7l-46-153.5c0-0.1,0-0.1-0.1-0.2
	c-0.1-0.2-0.4-0.2-0.6,0c-0.9,1-1.7,2.1-2.4,3.2c-9,15.3-18.2,30.4-27.6,45.3c-3.8,6-7.3,11.6-10.5,17c-14.2,23.5-28.5,46.8-43,69.8
	c-0.1,0.2-0.2,0.3-0.2,0.5c-0.1,0.7,0.3,1.3,1,1.4c8.6,1.3,17.1,2.5,25.7,3.6c2.6,0.3,5.7,0.5,9.1,0.5c0.5,0,1,0.3,1.1,0.8
	C748.9,606.8,748.8,607.9,747.9,609.2z"/>
<path class="st2" d="M420.9,231.4c1.3,2.4,2.4,5,3.4,7.7c3,8.3,6.8,16.2,10.2,24.4c0.2,0.6,0.4,1.2,0.4,1.7c0,0.1,0,0.1,0,0.1
	c0,0.3-0.2,0.5-0.5,0.5c-30.5-0.9-61-1.8-91.3-2.8c-21.2-0.7-42.1-1.1-62.5-1.3c-1.9,0-4-0.1-6.3-0.4c-0.4,0-0.5-0.2-0.3-0.5
	c1.5-2.6,3.7-4.1,5.6-6.2c7.8-8.5,16-17.3,24.6-26.3c5.6-5.9,11.1-12.1,16.9-18c4.3-4.4,8.6-8.8,12.8-13.3
	c16.3-17.2,32.8-34.9,49.5-53.1c0.1-0.1,0.1-0.2,0.2-0.2c0.4-0.2,0.9-0.1,1.1,0.3c0.8,1.5,1.6,3.1,2.2,4.7
	c4.7,11.6,9.2,22.7,13.5,33.2c0.3,0.9,1.3,1.4,2.2,1.2c9.4-1.7,18.9-3.1,28.5-3.9c36.5-3.2,73-0.8,109.4,7.3
	c56.7,12.6,109.2,39.8,153.6,77.9c17.9,15.3,34.7,33.8,49.4,53.2c7.9,10.4,16.2,22.9,24.9,37.4c3.1,5.1,5.8,10.1,8.1,15
	c0.7,1.6,0.3,2.7-1.3,3.4c-2.8,1.2-5.3,2.4-7.6,3.5c-11.1,5.6-22.4,11.3-33.8,17.1l0,0c-0.2,0-0.4,0-0.5-0.2
	c-4.1-8.2-8.5-16.4-13.4-24.1c-7.4-11.6-15.3-22.7-23.8-33.4c-7.2-9.1-15.7-17.4-24-25.6c-5.7-5.7-12.2-11.3-19.2-16.9
	c-24.8-19.7-51.8-35.8-80.7-46.8c-26.7-10.2-55-16.7-84.7-19.4c-21.6-2-43.6-1-65.4,1.3C420.5,229.1,420.1,229.9,420.9,231.4z"/>
<path class="st2" d="M261.4,699.8c7.2-9.6,13.8-18.5,19.8-26.6c0.1-0.1,0.3-0.3,0.5-0.4c0.7-0.3,1.6,0,1.9,0.7
	c2.1,4.3,4.2,8.5,6.3,12.4c13.3,24.8,28.1,50.9,42.1,77.4c8,14.9,16.4,30.6,25.5,46.9c0.6,1,1,2,1.4,3.2c0.2,0.6,0,0.9-0.6,0.8
	c-4.8-0.5-9.4-2.2-14.1-3.3c-42.1-9.9-85.3-20.1-129.5-30.5c-3.4-0.8-7.1-1.2-10.4-2.1c-0.2-0.1-0.3-0.2-0.5-0.3
	c-0.8-0.6-1-1.6-0.4-2.4c7.8-10.3,15.4-20.3,22.8-30c1.1-1.5,2.2-2.8,0.7-4.5c-13.7-16.2-25.7-33.6-36-52.3
	c-15-27.3-26.7-55.7-34.3-86c-11.3-45.2-13.8-90.4-7.5-135.5c6-43.4,20.5-85.7,41.7-124c3.1-5.6,6.8-11.9,11.2-19
	c0.6-0.9,1.8-1.3,2.8-0.7c3.1,1.8,6.2,3.7,9.2,5.7c10.7,7.1,20.3,13.4,28.9,18.9c1,0.7,1.2,2,0.6,3c-17.5,27.4-30.5,56.9-39,88.4
	c-6.5,23.8-9.4,48.7-9.8,73.7c-0.3,12.1,0.6,25.9,2.5,41.7c0.7,6.1,1.9,11.7,2.9,17.7c0.8,4.5,1.7,8.9,2.7,13.3
	c6.8,28.8,17.7,56.1,32.7,81.9c6.8,11.6,14.7,22.9,22.2,34.1c0.2,0.3,0.6,0.4,0.9,0.2C259.7,701.6,260.6,700.7,261.4,699.8z"/>
<path class="st2" d="M747.8,604.7c-3.5,0-6.5-0.2-9.1-0.5c-8.6-1.2-17.1-2.3-25.7-3.6c-0.2-0.1-0.4-0.1-0.5-0.2
	c-0.6-0.4-0.8-1.1-0.4-1.7c14.5-23,28.8-46.3,43-69.8c3.2-5.3,6.7-11,10.5-17c9.4-15,18.6-30.1,27.6-45.3c0.6-1.1,1.4-2.1,2.4-3.2
	c0,0,0.1-0.1,0.2-0.1c0.3-0.1,0.5,0.1,0.6,0.3l46,153.5c0,0.1,0,0.2,0,0.3c-0.1,0.3-0.4,0.5-0.7,0.5l-40.8-5.7
	c-0.9-0.1-1.6,0.4-1.9,1.2c-2.5,7.9-5.6,15.8-9.2,23.7c-18.4,40.1-43.1,75.5-74.3,106.2c-25.2,24.8-53.6,45.3-85.2,61.6
	c-22.7,11.8-46.8,21.1-72.2,28.1c-6.5,1.7-13,3.3-19.7,4.6c-29.7,5.8-58.7,7.6-88.5,6.6c-1.2-0.1-1.8-0.6-1.7-1.8l2.1-46
	c0-0.7,0.5-1.2,1.2-1.2c22.2,0.1,44.3,0,66.3-3.8c46.2-8.1,88.1-25.4,125.7-51.9c40.8-28.8,72.7-65.8,95.5-111.2
	c3.2-6.3,6.2-12.7,9.2-19.2c0.5-1.2,0.7-2.4,0.4-3.4C748.5,605.2,748.1,604.9,747.8,604.7z"/>
</svg>
