<?xml version="1.0" encoding="utf-8"?>
<!-- Generator: Adobe Illustrator 28.0.0, SVG Export Plug-In . SVG Version: 6.00 Build 0)  -->
<svg version="1.1" id="图层_1" xmlns="http://www.w3.org/2000/svg" xmlns:xlink="http://www.w3.org/1999/xlink" x="0px" y="0px"
	 viewBox="0 0 988 988" style="enable-background:new 0 0 988 988;" xml:space="preserve">
<style type="text/css">
	.st0{fill:none;stroke:#808080;stroke-width:2;}
	.st1{fill:#FFFFFF;}
	.st2{fill:#4DAF4A;}
</style>
<g>
	<path vector-effect="non-scaling-stroke" class="st0" d="M565.9,228.9c1.6,0.2,2,0.9,1.2,2.3c-1.3,2.4-2.4,4.9-3.4,7.7
		c-3,8.2-6.8,16.2-10.2,24.4c-0.2,0.6-0.4,1.1-0.4,1.7c0,0.3,0.2,0.5,0.5,0.6c0,0,0,0,0.1,0c30.6-0.9,61-1.9,91.3-2.8
		c21.2-0.7,42.1-1.1,62.5-1.3c1.9,0,4-0.2,6.3-0.4c0.3,0,0.4-0.2,0.3-0.5c-1.5-2.6-3.6-4.1-5.6-6.2c-7.8-8.5-16-17.2-24.6-26.3
		c-5.6-5.9-11.1-12.1-16.9-18c-4.3-4.4-8.6-8.9-12.8-13.3c-16.2-17.2-32.7-34.9-49.5-53.1c-0.3-0.3-0.8-0.3-1.1-0.1
		c-0.1,0.1-0.1,0.1-0.2,0.2c-0.8,1.5-1.6,3.1-2.2,4.7c-4.7,11.7-9.2,22.7-13.5,33.2c-0.4,0.9-1.3,1.4-2.2,1.2
		c-9.4-1.8-18.9-3.1-28.5-3.9c-36.6-3.2-73.1-0.8-109.4,7.3c-56.7,12.6-109.2,39.8-153.6,77.9c-17.9,15.4-34.7,33.9-49.4,53.2
		c-7.9,10.4-16.2,22.8-24.9,37.4c-3,5.1-5.7,10.1-8.1,15c-0.7,1.6-0.3,2.7,1.3,3.4c2.8,1.2,5.3,2.3,7.6,3.5
		c11.1,5.6,22.4,11.3,33.8,17.1c0.2,0.1,0.4,0,0.5-0.1c0,0,0,0,0,0c4.1-8.2,8.5-16.4,13.4-24.1c7.4-11.5,15.3-22.6,23.8-33.4
		c7.2-9.1,15.7-17.4,24-25.6c5.8-5.7,12.2-11.3,19.2-16.9c24.8-19.6,51.8-35.7,80.7-46.8c26.7-10.2,54.9-16.7,84.7-19.4
		C522.1,225.6,544.1,226.6,565.9,228.9"/>
	<path vector-effect="non-scaling-stroke" class="st0" d="M729.4,702.2c-1.1-0.7-2-1.5-2.8-2.6c-7.2-9.6-13.8-18.4-19.8-26.6
		c-0.5-0.6-1.4-0.8-2-0.3c-0.2,0.1-0.3,0.3-0.4,0.5c-2.1,4.3-4.2,8.5-6.3,12.4c-13.3,24.8-28.1,50.9-42.1,77.4
		c-7.9,15-16.4,30.6-25.5,46.9c-0.5,0.9-1,2-1.4,3.2c-0.2,0.6,0,0.8,0.6,0.8c4.8-0.5,9.4-2.2,14.1-3.3
		c42.1-9.9,85.2-20.1,129.5-30.5c3.4-0.8,7.1-1.2,10.4-2.1c0.9-0.3,1.4-1.2,1.2-2.1c-0.1-0.2-0.1-0.4-0.3-0.5
		c-7.7-10.3-15.3-20.3-22.8-30c-1.1-1.5-2.2-2.8-0.7-4.5c13.7-16.2,25.8-33.7,36-52.3c15.1-27.3,26.8-55.7,34.3-86
		c11.3-45.2,13.8-90.4,7.5-135.5c-6.1-43.4-20.5-85.6-41.7-124c-3.1-5.6-6.8-11.9-11.2-19c-0.6-0.9-1.8-1.2-2.8-0.7
		c-3.1,1.8-6.2,3.7-9.2,5.7c-10.6,7.1-20.3,13.4-28.9,18.9c-1,0.6-1.3,2-0.6,3c17.5,27.4,30.5,56.9,39,88.4
		c6.4,23.8,9.3,48.8,9.8,73.7c0.2,12-0.6,25.9-2.5,41.7c-0.7,6.1-1.9,11.7-2.9,17.7c-0.7,4.5-1.6,8.9-2.7,13.3
		c-6.8,28.8-17.7,56.1-32.7,81.9c-6.8,11.6-14.7,22.9-22.2,34.1C730.1,702.3,729.7,702.4,729.4,702.2"/>
	<path vector-effect="non-scaling-stroke" class="st0" d="M239.4,605.7c0.1-0.5,0.6-0.8,1.1-0.8c3.4,0,6.5-0.2,9.1-0.5
		c8.6-1.1,17.1-2.3,25.7-3.6c0.7-0.1,1.1-0.7,1-1.4c0-0.2-0.1-0.3-0.2-0.5c-14.5-23-28.8-46.3-43-69.8c-3.2-5.4-6.7-11-10.5-17
		c-9.4-14.9-18.6-30-27.6-45.3c-0.7-1.1-1.5-2.2-2.4-3.2c-0.2-0.2-0.5-0.2-0.6,0c-0.1,0.1-0.1,0.1-0.1,0.2l-46,153.5
		c-0.1,0.3,0.1,0.6,0.4,0.7c0.1,0,0.2,0,0.3,0l40.8-5.7c0.8-0.1,1.6,0.4,1.9,1.2c2.6,8,5.6,15.9,9.2,23.7
		c18.4,40,43.1,75.4,74.3,106.2c25.2,24.8,53.6,45.4,85.2,61.6c22.8,11.7,46.9,21.1,72.2,28.1c6.5,1.8,13.1,3.3,19.7,4.6
		c29.7,5.8,58.7,7.6,88.5,6.6c1.2,0,1.7-0.6,1.7-1.8l-2.1-46c0-0.7-0.6-1.2-1.2-1.2c-22.2,0.1-44.3,0-66.3-3.8
		c-46.2-8.1-88.1-25.4-125.7-51.9c-40.8-28.8-72.7-65.9-95.5-111.2c-3.2-6.4-6.3-12.8-9.2-19.2C239.2,607.9,239.1,606.8,239.4,605.7
		"/>
</g>
<path class="st1" d="M988,0v988H0V0H988z M565.9,228.9c1.6,0.2,2,0.9,1.2,2.3c-1.3,2.4-2.4,4.9-3.4,7.7c-3,8.2-6.8,16.2-10.2,24.4
	c-0.2,0.6-0.4,1.1-0.4,1.7c0,0.3,0.2,0.5,0.5,0.6c0,0,0,0,0.1,0c30.6-0.9,61-1.9,91.3-2.8c21.2-0.7,42.1-1.1,62.5-1.3
	c1.9,0,4-0.2,6.3-0.4c0.3,0,0.4-0.2,0.3-0.5c-1.5-2.6-3.6-4.1-5.6-6.2c-7.8-8.5-16-17.2-24.6-26.3c-5.6-5.9-11.1-12.1-16.9-18
	c-4.3-4.4-8.6-8.9-12.8-13.3c-16.2-17.2-32.7-34.9-49.5-53.1c-0.3-0.3-0.8-0.3-1.1-0.1c-0.1,0.1-0.1,0.1-0.2,0.2
	c-0.8,1.5-1.6,3.1-2.2,4.7c-4.7,11.7-9.2,22.7-13.5,33.2c-0.4,0.9-1.3,1.4-2.2,1.2c-9.4-1.8-18.9-3.1-28.5-3.9
	c-36.6-3.2-73.1-0.8-109.4,7.3c-56.7,12.6-109.2,39.8-153.6,77.9c-17.9,15.4-34.7,33.9-49.4,53.2c-7.9,10.4-16.2,22.8-24.9,37.4
	c-3,5.1-5.7,10.1-8.1,15c-0.7,1.6-0.3,2.7,1.3,3.4c2.8,1.2,5.3,2.3,7.6,3.5c11.1,5.6,22.4,11.3,33.8,17.1c0.2,0.1,0.4,0,0.5-0.1
	c0,0,0,0,0,0c4.1-8.2,8.5-16.4,13.4-24.1c7.4-11.5,15.3-22.6,23.8-33.4c7.2-9.1,15.7-17.4,24-25.6c5.8-5.7,12.2-11.3,19.2-16.9
	c24.8-19.6,51.8-35.7,80.7-46.8c26.7-10.2,54.9-16.7,84.7-19.4C522.1,225.6,544.1,226.6,565.9,228.9z M729.4,702.2
	c-1.1-0.7-2-1.5-2.8-2.6c-7.2-9.6-13.8-18.4-19.8-26.6c-0.5-0.6-1.4-0.8-2-0.3c-0.2,0.1-0.3,0.3-0.4,0.5c-2.1,4.3-4.2,8.5-6.3,12.4
	c-13.3,24.8-28.1,50.9-42.1,77.4c-7.9,15-16.4,30.6-25.5,46.9c-0.5,0.9-1,2-1.4,3.2c-0.2,0.6,0,0.8,0.6,0.8
	c4.8-0.5,9.4-2.2,14.1-3.3c42.1-9.9,85.2-20.1,129.5-30.5c3.4-0.8,7.1-1.2,10.4-2.1c0.9-0.3,1.4-1.2,1.2-2.1
	c-0.1-0.2-0.1-0.4-0.3-0.5c-7.7-10.3-15.3-20.3-22.8-30c-1.1-1.5-2.2-2.8-0.7-4.5c13.7-16.2,25.8-33.7,36-52.3
	c15.1-27.3,26.8-55.7,34.3-86c11.3-45.2,13.8-90.4,7.5-135.5c-6.1-43.4-20.5-85.6-41.7-124c-3.1-5.6-6.8-11.9-11.2-19
	c-0.6-0.9-1.8-1.2-2.8-0.7c-3.1,1.8-6.2,3.7-9.2,5.7c-10.6,7.1-20.3,13.4-28.9,18.9c-1,0.6-1.3,2-0.6,3c17.5,27.4,30.5,56.9,39,88.4
	c6.4,23.8,9.3,48.8,9.8,73.7c0.2,12-0.6,25.9-2.5,41.7c-0.7,6.1-1.9,11.7-2.9,17.7c-0.7,4.5-1.6,8.9-2.7,13.3
	c-6.8,28.8-17.7,56.1-32.7,81.9c-6.8,11.6-14.7,22.9-22.2,34.1C730.1,702.3,729.7,702.4,729.4,702.2z M239.4,605.7
	c0.1-0.5,0.6-0.8,1.1-0.8c3.4,0,6.5-0.2,9.1-0.5c8.6-1.1,17.1-2.3,25.7-3.6c0.7-0.1,1.1-0.7,1-1.4c0-0.2-0.1-0.3-0.2-0.5
	c-14.5-23-28.8-46.3-43-69.8c-3.2-5.4-6.7-11-10.5-17c-9.4-14.9-18.6-30-27.6-45.3c-0.7-1.1-1.5-2.2-2.4-3.2c-0.2-0.2-0.5-0.2-0.6,0
	c-0.1,0.1-0.1,0.1-0.1,0.2l-46,153.5c-0.1,0.3,0.1,0.6,0.4,0.7c0.1,0,0.2,0,0.3,0l40.8-5.7c0.8-0.1,1.6,0.4,1.9,1.2
	c2.6,8,5.6,15.9,9.2,23.7c18.4,40,43.1,75.4,74.3,106.2c25.2,24.8,53.6,45.4,85.2,61.6c22.8,11.7,46.9,21.1,72.2,28.1
	c6.5,1.8,13.1,3.3,19.7,4.6c29.7,5.8,58.7,7.6,88.5,6.6c1.2,0,1.7-0.6,1.7-1.8l-2.1-46c0-0.7-0.6-1.2-1.2-1.2
	c-22.2,0.1-44.3,0-66.3-3.8c-46.2-8.1-88.1-25.4-125.7-51.9c-40.8-28.8-72.7-65.9-95.5-111.2c-3.2-6.4-6.3-12.8-9.2-19.2
	C239.2,607.9,239.1,606.8,239.4,605.7z"/>
<path class="st2" d="M565.9,228.9c-21.8-2.3-43.8-3.3-65.4-1.3c-29.7,2.7-58,9.2-84.7,19.4c-28.9,11-55.9,27.1-80.7,46.8
	c-7,5.6-13.5,11.2-19.2,16.9c-8.3,8.2-16.8,16.5-24,25.6c-8.5,10.7-16.4,21.8-23.8,33.4c-4.9,7.7-9.3,15.9-13.4,24.1
	c-0.1,0.2-0.3,0.2-0.5,0.2c0,0,0,0,0,0c-11.4-5.8-22.7-11.5-33.8-17.1c-2.3-1.1-4.8-2.3-7.6-3.5c-1.6-0.7-2-1.8-1.3-3.4
	c2.3-4.9,5-9.9,8.1-15c8.7-14.5,17-27,24.9-37.4c14.7-19.4,31.5-37.9,49.4-53.2c44.4-38.1,96.9-65.3,153.6-77.9
	c36.4-8.1,72.9-10.5,109.4-7.3c9.6,0.8,19.1,2.2,28.5,3.9c0.9,0.2,1.9-0.3,2.2-1.2c4.3-10.5,8.8-21.6,13.5-33.2
	c0.6-1.6,1.4-3.2,2.2-4.7c0.2-0.4,0.7-0.5,1.1-0.3c0.1,0,0.1,0.1,0.2,0.2c16.7,18.2,33.2,35.9,49.5,53.1c4.2,4.5,8.5,8.9,12.8,13.3
	c5.8,5.9,11.3,12.1,16.9,18c8.6,9,16.8,17.8,24.6,26.3c1.9,2.1,4.1,3.6,5.6,6.2c0.2,0.3,0.1,0.5-0.3,0.5c-2.3,0.3-4.4,0.4-6.3,0.4
	c-20.4,0.2-41.3,0.6-62.5,1.3c-30.3,1-60.8,1.9-91.3,2.8c-0.3,0-0.5-0.2-0.5-0.5c0,0,0,0,0-0.1c0-0.5,0.2-1.1,0.4-1.7
	c3.4-8.2,7.2-16.1,10.2-24.4c1-2.7,2.1-5.3,3.4-7.7C567.9,229.9,567.5,229.1,565.9,228.9z"/>
<path class="st2" d="M729.4,702.2c0.3,0.2,0.7,0.1,0.9-0.2c7.5-11.2,15.4-22.5,22.2-34.1c15-25.8,25.9-53.1,32.7-81.9
	c1-4.4,1.9-8.8,2.7-13.3c1-6,2.2-11.6,2.9-17.7c1.9-15.8,2.8-29.6,2.5-41.7c-0.4-25-3.3-49.9-9.8-73.7c-8.5-31.5-21.5-61-39-88.4
	c-0.6-1-0.4-2.3,0.6-3c8.6-5.5,18.2-11.8,28.9-18.9c3-2,6.1-3.9,9.2-5.7c1-0.6,2.2-0.2,2.8,0.7c4.4,7.1,8.1,13.4,11.2,19
	c21.2,38.3,35.7,80.6,41.7,124c6.3,45.1,3.8,90.3-7.5,135.5c-7.6,30.3-19.3,58.7-34.3,86c-10.3,18.7-22.3,36.1-36,52.3
	c-1.5,1.7-0.4,3,0.7,4.5c7.4,9.7,15,19.7,22.8,30c0.6,0.8,0.4,1.8-0.4,2.4c-0.2,0.1-0.3,0.2-0.5,0.3c-3.3,0.9-7,1.3-10.4,2.1
	c-44.2,10.4-87.4,20.6-129.5,30.5c-4.7,1.1-9.3,2.8-14.1,3.3c-0.6,0.1-0.8-0.2-0.6-0.8c0.4-1.2,0.8-2.2,1.4-3.2
	c9.1-16.3,17.5-32,25.5-46.9c14-26.5,28.8-52.6,42.1-77.4c2.1-3.9,4.2-8.1,6.3-12.4c0.3-0.7,1.2-1,1.9-0.7c0.2,0.1,0.4,0.3,0.5,0.4
	c6,8.1,12.6,17,19.8,26.6C727.4,700.7,728.3,701.6,729.4,702.2z"/>
<path class="st2" d="M239.4,605.7c-0.3,1-0.1,2.2,0.4,3.4c3,6.5,6,12.9,9.2,19.2c22.8,45.4,54.7,82.4,95.5,111.2
	c37.6,26.5,79.5,43.8,125.7,51.9c22,3.8,44.1,3.9,66.3,3.8c0.7,0,1.2,0.5,1.2,1.2l2.1,46c0.1,1.2-0.5,1.7-1.7,1.8
	c-29.8,1-58.8-0.8-88.5-6.6c-6.7-1.3-13.2-2.9-19.7-4.6c-25.4-7-49.5-16.3-72.2-28.1c-31.6-16.3-60-36.8-85.2-61.6
	c-31.2-30.7-55.9-66.1-74.3-106.2c-3.6-7.9-6.7-15.8-9.2-23.7c-0.3-0.8-1-1.3-1.9-1.2l-40.8,5.7c-0.3,0-0.6-0.2-0.7-0.5
	c0-0.1,0-0.2,0-0.3l46-153.5c0.1-0.2,0.3-0.4,0.6-0.3c0.1,0,0.2,0.1,0.2,0.1c1,1.1,1.8,2.1,2.4,3.2c9,15.2,18.2,30.3,27.6,45.3
	c3.8,6,7.3,11.7,10.5,17c14.2,23.5,28.5,46.8,43,69.8c0.4,0.6,0.2,1.3-0.4,1.7c-0.1,0.1-0.3,0.1-0.5,0.2c-8.6,1.3-17.1,2.4-25.7,3.6
	c-2.6,0.3-5.6,0.5-9.1,0.5C239.9,604.9,239.5,605.2,239.4,605.7z"/>
</svg>
